<svg xmlns="http://www.w3.org/2000/svg" width="905" height="175" fill="none">
  <path fill="#24292F" d="M227.142 50.44h-28.656a5.162 5.162 0 0 0-5.184 5.184v90.432a5.162 5.162 0 0 0 5.184 5.184h9.216a5.162 5.162 0 0 0 5.184-5.184v-26.064h14.256c23.904 0 38.592-13.824 38.592-34.704 0-20.88-14.688-34.848-38.592-34.848Zm0 51.408h-14.256V68.584h14.256c11.808 0 18.72 6.048 18.72 16.704 0 10.512-6.912 16.56-18.72 16.56Zm84.962-25.344c-21.888 0-38.448 16.848-38.448 38.304 0 21.312 16.56 38.304 38.448 38.304 22.032 0 38.592-16.992 38.592-38.304 0-21.456-16.56-38.304-38.592-38.304Zm0 59.04c-12.096 0-19.728-9.36-19.728-20.736 0-11.376 7.632-20.736 19.728-20.736 12.24 0 19.872 9.36 19.872 20.736 0 11.376-7.632 20.736-19.872 20.736Zm52.952-79.92v90.432a5.162 5.162 0 0 0 5.184 5.184h8.064c2.736 0 5.04-2.304 5.04-5.184V55.624c0-2.88-2.304-5.184-5.04-5.184h-8.064a5.162 5.162 0 0 0-5.184 5.184Zm37.018 0v90.432a5.162 5.162 0 0 0 5.184 5.184h8.064c2.736 0 5.04-2.304 5.04-5.184V55.624c0-2.88-2.304-5.184-5.04-5.184h-8.064a5.162 5.162 0 0 0-5.184 5.184Zm42.202 95.616h7.92a5.162 5.162 0 0 0 5.184-5.184v-62.64a5.162 5.162 0 0 0-5.184-5.184h-7.92a5.162 5.162 0 0 0-5.184 5.184v62.64a5.162 5.162 0 0 0 5.184 5.184Zm3.888-83.664c5.472 0 9.792-4.464 9.792-9.792 0-5.328-4.32-9.792-9.792-9.792-5.328 0-9.648 4.464-9.648 9.792 0 5.328 4.32 9.792 9.648 9.792Zm67.403 8.928c-10.656 0-17.28 4.752-21.312 10.656v-3.744c0-2.88-2.304-5.184-5.04-5.184h-8.064c-2.736 0-5.04 2.304-5.04 5.184v62.64c0 2.88 2.304 5.184 5.04 5.184h8.064c2.736 0 5.04-2.304 5.04-5.184v-35.424c0-8.496 4.752-16.416 15.552-16.416 10.368 0 14.256 7.056 14.256 16.416v35.424a5.162 5.162 0 0 0 5.184 5.184h7.92a5.162 5.162 0 0 0 5.184-5.184v-39.168c0-15.552-8.352-30.384-26.784-30.384Zm100.091 6.912v3.456c-4.608-6.048-11.952-10.368-23.328-10.368-22.608 0-35.568 19.152-35.568 38.304 0 19.008 12.96 38.16 35.568 38.16 11.376 0 18.72-4.32 23.328-10.368v3.456a5.162 5.162 0 0 0 5.184 5.184h7.92a5.162 5.162 0 0 0 5.184-5.184v-62.64a5.162 5.162 0 0 0-5.184-5.184h-7.92a5.162 5.162 0 0 0-5.184 5.184Zm-20.448 52.128c-12.528 0-19.728-9.648-19.728-20.736 0-11.232 7.2-20.736 19.728-20.736 12.528 0 19.728 9.36 19.728 20.736 0 11.232-7.2 20.736-19.728 20.736Zm92.981-45.648v-6.48a5.162 5.162 0 0 0-5.184-5.184h-10.368v-10.08a5.162 5.162 0 0 0-5.184-5.184h-8.064c-2.88 0-5.04 2.304-5.04 5.184v10.08h-6.624c-2.736 0-5.04 2.304-5.04 5.184v6.48c0 2.736 2.304 5.04 5.04 5.04h6.624V124.6c0 15.12 7.488 27.648 26.208 27.648 1.728 0 3.024 0 4.32-.144a3.893 3.893 0 0 0 3.312-3.888v-9.504c0-2.16-1.872-3.888-4.032-3.888h-.288c-10.08 0-11.232-4.896-11.232-13.248v-26.64h10.368c2.88 0 5.184-2.304 5.184-5.04Zm21.72 61.344h7.92a5.162 5.162 0 0 0 5.184-5.184v-62.64a5.162 5.162 0 0 0-5.184-5.184h-7.92a5.162 5.162 0 0 0-5.184 5.184v62.64a5.162 5.162 0 0 0 5.184 5.184Zm3.888-83.664c5.472 0 9.792-4.464 9.792-9.792 0-5.328-4.32-9.792-9.792-9.792-5.328 0-9.648 4.464-9.648 9.792 0 5.328 4.32 9.792 9.648 9.792Zm62.075 8.928c-21.888 0-38.448 16.848-38.448 38.304 0 21.312 16.56 38.304 38.448 38.304 22.032 0 38.592-16.992 38.592-38.304 0-21.456-16.56-38.304-38.592-38.304Zm0 59.04c-12.096 0-19.728-9.36-19.728-20.736 0-11.376 7.632-20.736 19.728-20.736 12.24 0 19.872 9.36 19.872 20.736 0 11.376-7.632 20.736-19.872 20.736Zm92.408-59.04c-10.656 0-17.28 4.752-21.312 10.656v-3.744c0-2.88-2.304-5.184-5.04-5.184h-8.064c-2.736 0-5.04 2.304-5.04 5.184v62.64c0 2.88 2.304 5.184 5.04 5.184h8.064c2.736 0 5.04-2.304 5.04-5.184v-35.424c0-8.496 4.752-16.416 15.552-16.416 10.368 0 14.256 7.056 14.256 16.416v35.424a5.162 5.162 0 0 0 5.184 5.184h7.92a5.162 5.162 0 0 0 5.184-5.184v-39.168c0-15.552-8.352-30.384-26.784-30.384Z"/>
  <path fill="#F2B24D" fill-rule="evenodd" d="M68.922 117.152c-4.526 6.023-11.162 10.371-18.81 11.946-.006.215-.009.431-.009.648 0 14.083 11.417 25.5 25.5 25.5 14.084 0 25.501-11.417 25.501-25.5s-11.417-25.5-25.5-25.5c-.32 0-.637.006-.954.017a31.283 31.283 0 0 1-3.603 9.668 7 7 0 1 1-2.125 3.221Z" clip-rule="evenodd"/>
  <path fill="#24292F" d="M95.135 29.42c.378-.507.239-1.242-.326-1.527a43.183 43.183 0 0 0-12.063-4 .98.98 0 0 0-1.143.975v10.21c0 .474.335.881.797.989a31.29 31.29 0 0 1 7.385 2.74 1.077 1.077 0 0 0 1.543-.732c.651-3.114 1.811-5.977 3.807-8.655Zm7.566 21.908a1.022 1.022 0 0 1-.131-.498v-3.69h-.001l-.001-.001c0-5.996.698-8.677 2.362-10.776.345-.435.991-.444 1.38-.046a43.47 43.47 0 0 1 10.915 19.068c.096.358.379.636.737.729 17.014 4.373 30.002 18.773 32.284 36.53a.982.982 0 0 1-.981 1.102h-10.114c-.497 0-.917-.367-1.002-.858-2.301-13.429-13.105-23.96-26.671-25.842l-3.699-.513a1 1 0 0 1-.852-.841l-.557-3.693a31.25 31.25 0 0 0-3.669-10.67ZM45.396 35.383a.222.222 0 0 0-.31-.004 43.478 43.478 0 0 0-11.919 20.22 1.03 1.03 0 0 1-.72.728C15.827 60.94 3.207 75.165.961 92.644a.982.982 0 0 0 .98 1.102h10.114c.498 0 .918-.367 1.002-.858 2.265-13.213 12.761-23.621 26.02-25.744l3.62-.58a1 1 0 0 0 .832-.841l.535-3.627a31.28 31.28 0 0 1 4.416-12.003c.1-.16.155-.346.155-.536l.004-2.427c0-6.956-.943-9.448-3.243-11.748Zm15.926 3.089a1.075 1.075 0 0 1-1.515-.73c-.685-3.085-1.888-5.925-3.933-8.582-.392-.511-.25-1.264.329-1.546a43.182 43.182 0 0 1 12.274-3.848.98.98 0 0 1 1.126.977V34.91c0 .484-.346.897-.82.995a31.277 31.277 0 0 0-7.46 2.567Zm45.048 96.021c-1.978 13.104-12.038 23.562-24.937 26.141-.477.095-.83.51-.83.997v10.155a.98.98 0 0 0 1.123.977c17.168-2.572 31.05-15.176 35.498-31.656.097-.357.38-.637.738-.729 17.014-4.374 30.002-18.773 32.284-36.53a.982.982 0 0 0-.981-1.102h-10.114c-.497 0-.918.367-1.002.857-2.301 13.429-13.105 23.961-26.671 25.842l-3.699.513a1.001 1.001 0 0 0-.852.842l-.557 3.693Zm-67.293-5.145c-13.259-2.123-23.755-12.532-26.02-25.745a1.024 1.024 0 0 0-1.002-.857H1.941a.982.982 0 0 0-.98 1.102c2.246 17.479 14.865 31.704 31.486 36.317.352.098.627.376.72.729 4.538 17.157 19.287 30.159 37.354 32.101a.983.983 0 0 0 1.083-.983v-10.08c0-.508-.383-.934-.886-1.006-13.742-1.969-24.627-12.809-26.654-26.53l-.535-3.627a1 1 0 0 0-.832-.841l-3.62-.58Z"/>
  <path fill="#EB2227" fill-rule="evenodd" d="M106.724 123.746c14.084 0 25.5-11.417 25.5-25.5s-11.416-25.5-25.5-25.5c-14.083 0-25.5 11.417-25.5 25.5 0 .191.002.382.007.572a31.287 31.287 0 0 1 9.753 3.648 7 7 0 1 1 3.73 2.531c5.818 4.588 9.979 11.184 11.438 18.743.191.004.381.006.572.006Z" clip-rule="evenodd"/>
  <path fill="#04A54F" fill-rule="evenodd" d="M101.097 67.318a27.2 27.2 0 0 0 .006-.572c0-14.083-11.416-25.5-25.5-25.5-14.083 0-25.5 11.417-25.5 25.5s11.417 25.5 25.5 25.5c.191 0 .382-.002.572-.006a31.283 31.283 0 0 1 3.322-9.176 7 7 0 1 1 2.974-4.454c4.582-5.741 11.13-9.845 18.626-11.292Z" clip-rule="evenodd"/>
  <path fill="#2DA9E1" d="M69.216 97.598c.006.215.008.431.008.648 0 14.083-11.416 25.5-25.5 25.5-14.083 0-25.5-11.417-25.5-25.5s11.417-25.5 25.5-25.5c.32 0 .637.006.953.017 1.45 7.496 5.558 14.044 11.303 18.625a7 7 0 1 0 4.385 2.933 31.289 31.289 0 0 0 8.851 3.277Z"/>
  <path fill="#24292F" fill-rule="evenodd" d="M42.594 18.939a4 4 0 1 0 0 8 4 4 0 0 0 0-8Zm-10 4c0-5.523 4.477-10 10-10s10 4.477 10 10a9.954 9.954 0 0 1-1.366 5.048l.532.532-4.242 4.242-.739-.738a9.962 9.962 0 0 1-4.185.915c-5.523 0-10-4.477-10-10Zm22.008 71.307a4 4 0 1 0 0 8 4 4 0 0 0 0-8Zm-3.066-5.521.067-42.09h.036c0-7.228-.971-10.724-4.121-13.874l4.242-4.242c4.85 4.849 5.88 10.353 5.88 18.12h-3.027l2.99.006-.067 42.038c4.091 1.253 7.066 5.06 7.066 9.563 0 5.523-4.477 10-10 10s-10-4.477-10-10c0-4.453 2.911-8.226 6.934-9.521Zm57.734-69.786a4 4 0 1 0 0 8 4 4 0 0 0 0-8Zm-10 4c0-5.523 4.477-10 10-10s10 4.477 10 10c0 5.522-4.477 10-10 10a9.959 9.959 0 0 1-4.626-1.133l-.955.955c-3.15 3.15-4.12 6.647-4.12 13.879h.001v42.053c4.075 1.263 7.035 5.063 7.035 9.553 0 5.523-4.477 10-10 10s-10-4.477-10-10c0-4.465 2.926-8.246 6.965-9.531V46.64h-.002c0-7.768 1.03-13.272 5.879-18.121l2.121 2.12-2.121-2.12.955-.955a9.955 9.955 0 0 1-1.132-4.625Zm-2.665 71.307a4 4 0 1 0 0 8 4 4 0 0 0 0-8ZM71.603 10.434a4 4 0 1 1 8 0 4 4 0 0 1-8 0Zm4-10c-5.522 0-10 4.477-10 10 0 4.477 2.943 8.268 7 9.542v47.739c-4.039 1.284-6.965 5.066-6.965 9.53 0 4.467 2.928 8.25 6.97 9.534l.002 1.923c-4.06 1.272-7.006 5.064-7.006 9.544 0 4.489 2.957 8.287 7.03 9.552l.003 1.906c-4.057 1.275-7 5.065-7 9.542 0 5.523 4.478 10 10 10 5.524 0 10-4.477 10-10 0-4.478-2.943-8.269-7-9.543l-.003-1.925c4.042-1.283 6.97-5.066 6.97-9.532 0-4.475-2.94-8.264-6.994-9.54l-.002-1.909c4.072-1.264 7.03-5.062 7.03-9.551 0-4.49-2.96-8.29-7.035-9.553V19.976c4.058-1.274 7-5.065 7-9.542 0-5.523-4.477-10-10-10Zm-3.965 118.812a4 4 0 1 1 8 0 4 4 0 0 1-8 0Zm-.034-21a4 4 0 1 1 8 0 4 4 0 0 1-8 0Zm4.034-25a4 4 0 1 0 0 8 4 4 0 0 0 0-8Z" clip-rule="evenodd"/>
</svg>